<?xml version="1.0" encoding="UTF-8" ?>
<!DOCTYPE svg PUBLIC "-//W3C//DTD SVG 1.1//EN" "http://www.w3.org/Graphics/SVG/1.1/DTD/svg11.dtd">
<svg width="1209pt" height="827pt" viewBox="0 0 1209 827" version="1.1" xmlns="http://www.w3.org/2000/svg">
<path fill="#fdfeff" d=" M 0.00 0.00 L 1209.00 0.00 L 1209.00 827.00 L 0.00 827.00 L 0.00 0.00 Z" />
<path fill="#0279d7" d=" M 330.22 64.95 C 359.55 48.77 392.62 39.73 425.98 37.51 C 432.57 37.67 439.15 36.52 445.73 37.31 C 478.25 37.53 510.63 45.27 540.10 58.99 C 580.66 78.05 615.66 108.93 639.33 147.01 C 619.68 151.43 600.46 157.77 582.20 166.30 C 557.55 133.22 520.87 109.30 480.62 100.18 C 431.14 88.59 376.77 99.53 336.01 130.01 C 315.75 144.71 299.09 164.14 286.99 186.01 C 285.00 190.04 283.31 194.21 281.19 198.18 C 274.83 212.07 270.76 226.87 267.51 241.75 C 246.67 241.79 225.83 241.72 204.99 241.79 C 170.25 242.13 135.93 256.95 111.88 282.02 C 96.01 298.38 84.58 319.01 78.87 341.06 C 72.00 368.00 73.78 397.07 83.97 422.95 C 96.30 454.12 120.91 480.28 151.34 494.37 C 167.38 502.21 185.15 506.13 202.93 506.97 C 216.51 507.47 230.11 506.98 243.69 507.21 C 235.66 526.27 230.27 546.52 228.31 567.13 C 212.20 567.16 196.02 567.55 180.04 565.12 C 138.80 559.17 99.62 539.32 70.68 509.31 C 35.78 474.06 15.57 424.58 16.30 374.94 C 16.13 330.93 32.27 287.19 60.55 253.52 C 95.60 210.79 149.73 184.17 205.07 183.38 C 211.10 182.92 217.16 183.47 223.20 183.06 C 225.36 181.73 225.61 178.83 226.72 176.73 C 247.59 129.40 284.49 89.22 330.22 64.95 Z" />
<path fill="#0279d7" d=" M 545.24 225.53 C 586.91 193.39 638.46 174.21 691.03 171.53 C 697.75 171.91 704.39 170.08 711.11 170.91 C 715.37 171.50 719.67 171.56 723.96 171.57 C 753.81 173.62 783.37 180.55 810.84 192.45 C 818.88 196.28 827.22 199.56 834.78 204.32 C 852.67 214.40 869.55 226.38 884.52 240.46 C 894.44 248.89 902.89 258.84 911.22 268.80 C 923.18 283.57 933.42 299.68 942.06 316.60 C 948.24 318.36 954.72 317.00 961.00 318.12 C 1010.45 322.26 1058.39 342.62 1095.66 375.39 C 1142.84 416.21 1172.60 476.67 1175.36 539.07 C 1175.68 546.09 1176.74 553.12 1175.59 560.12 C 1174.33 603.63 1159.64 646.39 1135.37 682.40 C 1099.82 735.63 1043.03 774.39 980.19 787.08 C 958.75 791.42 936.82 792.11 915.01 791.77 C 767.33 791.77 619.66 791.77 471.98 791.77 C 465.38 791.72 458.76 792.03 452.19 791.27 C 410.91 789.51 370.60 773.39 338.93 746.96 C 299.37 714.25 273.41 666.33 265.31 615.82 C 261.95 606.59 262.66 596.67 261.53 587.07 C 260.86 571.95 262.56 556.77 266.00 542.05 C 265.44 542.14 264.33 542.32 263.78 542.41 C 266.41 542.05 266.44 539.18 267.13 537.19 C 271.22 521.55 276.55 506.18 284.06 491.84 C 287.71 485.29 291.04 478.56 295.25 472.34 C 303.20 458.15 314.05 445.86 325.51 434.43 C 352.08 408.70 385.63 390.12 421.72 381.82 C 430.48 379.72 439.42 378.41 448.36 377.34 C 461.42 317.41 496.43 262.64 545.24 225.53 Z" />
<path fill="#fdfeff" d=" M 732.58 415.03 C 743.30 414.81 754.01 415.10 764.73 414.91 C 764.92 477.59 764.57 540.26 764.91 602.94 C 770.74 597.42 775.81 591.14 781.39 585.36 C 804.21 560.51 826.86 535.50 849.87 510.83 C 863.84 510.88 877.81 510.79 891.78 510.88 C 887.03 515.79 881.99 520.42 877.39 525.46 C 871.30 532.91 863.64 538.88 857.59 546.35 C 851.42 553.24 844.19 559.13 838.41 566.38 C 833.29 571.91 827.69 576.98 822.53 582.48 C 815.25 591.38 806.11 598.55 799.03 607.64 C 806.57 616.18 814.78 624.09 822.80 632.18 C 829.42 640.19 837.27 647.03 844.40 654.57 C 852.29 664.30 862.27 672.10 870.21 681.80 C 876.23 688.13 882.69 694.06 888.66 700.45 C 891.65 704.15 895.05 707.49 898.46 710.81 C 883.43 710.90 868.40 710.83 853.38 710.84 C 835.26 690.25 816.21 670.51 797.96 650.03 C 786.77 638.29 776.04 626.11 764.90 614.31 C 764.61 646.48 764.86 678.67 764.78 710.85 C 754.04 710.85 743.31 710.85 732.58 710.85 C 732.58 612.24 732.56 513.63 732.58 415.03 Z" />
<path fill="#fdfeff" d=" M 378.30 431.48 C 392.85 431.59 407.40 431.25 421.95 431.66 C 444.76 484.59 468.41 537.19 491.44 590.03 C 499.83 609.20 508.62 628.21 516.30 647.69 C 517.98 651.89 519.21 656.25 520.46 660.61 C 521.89 658.80 522.70 656.63 523.45 654.49 C 529.42 637.08 537.16 620.36 544.73 603.61 C 569.96 547.57 595.25 491.55 620.47 435.51 C 621.13 434.15 621.84 432.81 622.55 431.47 C 636.25 431.49 649.95 431.47 663.65 431.48 C 663.66 524.60 663.66 617.72 663.66 710.85 C 652.67 710.85 641.69 710.85 630.70 710.85 C 630.69 647.21 630.72 583.58 630.69 519.95 C 630.33 512.58 631.98 505.32 631.46 497.95 C 632.11 489.60 632.61 481.23 633.15 472.86 C 633.45 471.31 633.51 469.72 633.50 468.16 C 630.08 476.55 628.92 485.74 625.20 494.04 C 617.95 510.99 610.21 527.72 602.74 544.57 C 578.19 599.99 553.42 655.32 528.97 710.78 C 523.57 710.90 518.18 710.82 512.78 710.86 C 483.44 645.01 453.94 579.24 424.59 513.39 C 420.42 503.95 415.56 494.73 413.04 484.65 C 411.26 479.23 410.61 473.47 408.40 468.20 C 408.32 472.48 409.09 476.73 408.91 481.02 C 408.68 485.38 409.80 489.64 409.75 493.98 C 409.69 566.27 409.74 638.56 409.72 710.85 C 399.25 710.85 388.77 710.85 378.30 710.85 C 378.30 617.72 378.30 524.60 378.30 431.48 Z" />
<path fill="#fdfeff" d=" M 998.98 507.21 C 1012.13 505.39 1025.64 506.91 1038.34 510.59 C 1050.27 514.71 1061.77 521.27 1069.73 531.27 C 1084.26 547.92 1090.42 570.31 1091.41 592.02 C 1091.05 597.69 1092.36 603.27 1092.21 608.94 C 1092.17 612.20 1092.16 615.46 1092.18 618.73 C 1044.92 618.74 997.65 618.71 950.39 618.75 C 951.45 624.45 951.27 630.29 952.45 635.98 C 953.85 643.22 955.87 650.43 959.20 657.05 C 966.39 670.75 979.12 681.65 994.13 685.80 C 1004.06 688.76 1014.50 688.74 1024.76 688.30 C 1044.11 686.44 1062.60 678.49 1077.87 666.55 C 1077.81 676.57 1077.95 686.59 1077.79 696.61 C 1059.90 709.44 1037.69 714.42 1016.03 715.43 C 1005.66 715.57 995.22 715.60 985.07 713.18 C 964.65 709.17 946.24 696.52 934.86 679.15 C 927.90 668.92 923.87 657.06 920.83 645.16 C 916.85 624.30 916.15 602.67 920.79 581.85 C 926.01 557.06 940.93 534.36 961.99 520.20 C 973.17 513.30 985.79 508.24 998.98 507.21 Z" />
<path fill="#0279d7" d=" M 997.12 534.65 C 1009.12 531.98 1022.02 533.30 1033.12 538.64 C 1045.87 545.31 1053.79 558.55 1056.96 572.24 C 1058.70 578.61 1058.36 585.26 1059.37 591.75 C 1023.29 591.75 987.21 591.81 951.13 591.72 C 953.20 580.05 956.49 568.23 963.49 558.49 C 971.09 546.64 983.31 537.66 997.12 534.65 Z" />
</svg>
